<?xml version="1.0" standalone="no"?>
<!DOCTYPE svg PUBLIC "-//W3C//DTD SVG 20010904//EN"
 "http://www.w3.org/TR/2001/REC-SVG-20010904/DTD/svg10.dtd">
<svg version="1.0" xmlns="http://www.w3.org/2000/svg"
 width="512.000000pt" height="512.000000pt" viewBox="0 0 512.000000 512.000000"
 preserveAspectRatio="xMidYMid meet">

<g transform="translate(0.000000,512.000000) scale(0.100000,-0.100000)"
fill="#000000" stroke="none">
<path d="M1165 4634 c-563 -100 -1013 -547 -1137 -1127 -29 -138 -32 -437 -5
-572 58 -286 203 -575 415 -826 401 -477 1324 -1258 1799 -1524 195 -108 311
-135 434 -99 307 91 1047 650 1678 1269 465 456 668 778 747 1185 27 141 25
428 -4 567 -126 586 -581 1033 -1150 1128 -138 23 -362 17 -475 -14 -261 -70
-478 -209 -747 -481 l-154 -157 -166 167 c-91 92 -205 197 -254 233 -174 129
-367 217 -546 251 -103 20 -325 20 -435 0z m430 -315 c106 -26 260 -103 365
-183 100 -75 191 -162 359 -344 131 -141 175 -172 242 -172 73 0 125 39 310
232 231 240 362 345 525 418 284 128 619 88 913 -107 369 -246 559 -698 486
-1152 -40 -242 -168 -494 -372 -732 -211 -246 -613 -622 -1003 -940 -369 -301
-771 -564 -859 -561 -101 3 -551 307 -971 657 -340 284 -711 634 -892 844
-355 410 -472 866 -331 1296 173 531 729 868 1228 744z"/>
</g>
</svg>
