<?xml version="1.0" encoding="utf-8"?>
<!-- Svg Vector Icons : http://www.onlinewebfonts.com/icon -->
<!DOCTYPE svg PUBLIC "-//W3C//DTD SVG 1.1//EN" "http://www.w3.org/Graphics/SVG/1.1/DTD/svg11.dtd">
<svg version="1.1" xmlns="http://www.w3.org/2000/svg" xmlns:xlink="http://www.w3.org/1999/xlink" x="0px" y="0px" viewBox="0 0 1000 1000" enable-background="new 0 0 1000 1000" xml:space="preserve">
<metadata> Svg Vector Icons : http://www.onlinewebfonts.com/icon </metadata>
<g><g transform="translate(0.000000,512.000000) scale(0.100000,-0.100000)"><path d="M4780.8,4997.1c-229.8-65.1-417.5-224.1-524.8-450.1c-55.5-116.8-59.4-139.8-59.4-335.2c0-197.3,3.8-218.3,61.3-339c84.3-180,208.8-306.4,386.9-394.5c139.8-68.9,149.4-70.9,354.3-70.9c199.2,0,220.2,3.8,337.1,59.4c632,302.6,635.8,1177.9,5.7,1478.5c-116.8,53.6-166.6,67-296.9,72.8C4939.8,5023.9,4849.8,5016.2,4780.8,4997.1z"/><path d="M3601.1,3053.1c-114.9-23-254.7-101.5-337.1-185.8c-143.6-149.4-147.5-162.8-446.2-1717.9c-300.7-1572.4-294.9-1524.5-197.3-1649c51.7-65.1,176.2-122.6,264.3-124.5c86.2,0,226,70.9,275.8,137.9c28.7,40.2,93.8,331.3,254.7,1139.5c185.8,936.5,220.2,1091.7,256.6,1122.3c51.7,42.1,67,40.2,113-5.7c38.3-38.3,38.3-63.2,38.3-3085.4c0-2281,5.7-3068.1,23-3123.7c28.7-95.8,149.4-233.7,252.8-289.2c114.9-59.4,333.2-59.4,452,1.9c116.8,61.3,166.6,111.1,226,224.1l51.7,95.8l3.8,1800.3c3.8,990.2,9.6,1819.4,15.3,1842.4c11.5,45.9,97.7,101.5,160.9,101.5c21.1,0,63.2-21.1,91.9-46l53.6-46l9.6-1836.7l9.6-1834.8l42.1-78.5c84.3-159,277.7-275.8,455.8-275.8c178.1,0,371.6,116.8,455.8,275.8l42.1,78.5l5.7,3087.3l3.8,3089.2l46,30.6c61.3,38.3,116.8,11.5,143.6-72.8c9.6-34.5,105.3-507.5,212.6-1049.5c105.3-542,203-1017,214.5-1053.3c24.9-84.3,80.4-147.5,172.4-193.5c91.9-47.9,193.4-45.9,296.9,3.8c105.3,49.8,162.8,132.2,174.3,245.1c11.5,124.5-519,2884.3-580.3,3018.3c-65.1,145.6-166.6,249-312.2,319.8l-128.3,63.2l-1369.4,3.8C4296.3,3066.5,3643.2,3060.8,3601.1,3053.1z"/></g></g>
</svg>