<?xml version="1.0" standalone="no"?>
<!DOCTYPE svg PUBLIC "-//W3C//DTD SVG 20010904//EN"
 "http://www.w3.org/TR/2001/REC-SVG-20010904/DTD/svg10.dtd">
<svg version="1.0" xmlns="http://www.w3.org/2000/svg"
 width="512.000000pt" height="512.000000pt" viewBox="0 0 512.000000 512.000000"
 preserveAspectRatio="xMidYMid meet">

<g transform="translate(0.000000,512.000000) scale(0.100000,-0.100000)"
fill="#000000" stroke="none">
<path d="M2460 5034 c-701 -60 -1244 -566 -1348 -1258 l-7 -48 -150 -53 c-407
-141 -678 -311 -837 -524 -226 -301 -120 -643 284 -914 381 -255 927 -415
1663 -489 174 -17 816 -17 990 0 736 74 1282 234 1663 489 573 384 527 884
-117 1248 -126 71 -252 126 -436 190 l-150 53 -7 48 c-85 565 -473 1023 -1008
1192 -156 49 -395 78 -540 66z m286 -379 c423 -74 769 -393 874 -805 22 -86
40 -231 40 -327 l0 -63 -42 -27 c-70 -44 -197 -100 -298 -131 -102 -32 -231
-65 -235 -60 -1 2 11 36 27 76 58 145 71 214 72 377 0 139 -1 156 -27 228 -53
151 -147 260 -281 327 -195 95 -392 102 -589 20 -185 -77 -301 -218 -342 -415
-32 -155 -12 -339 57 -522 20 -51 34 -93 32 -93 -1 0 -41 9 -89 20 -164 39
-340 109 -447 176 -37 24 -38 25 -38 87 1 248 65 472 187 655 242 364 673 551
1099 477z m-460 -1025 c36 -17 87 -54 114 -82 148 -150 32 -245 -172 -142 -58
29 -133 96 -154 135 -22 43 -18 95 9 114 34 25 124 14 203 -25z m752 24 c33
-23 30 -80 -7 -131 -96 -132 -315 -208 -368 -127 -24 38 -4 92 58 154 97 97
253 149 317 104z m-1917 -676 c85 -36 146 -123 156 -221 16 -153 -117 -297
-272 -297 -100 0 -213 74 -250 163 -49 119 -11 259 92 330 82 58 177 67 274
25z m3105 3 c100 -45 159 -137 158 -251 -1 -79 -19 -124 -74 -184 -105 -114
-285 -113 -392 2 -203 217 35 552 308 433z m-1575 -356 c104 -36 169 -124 177
-239 6 -94 -20 -158 -90 -221 -72 -65 -165 -84 -265 -56 -58 16 -135 88 -163
153 -31 72 -25 175 13 241 67 114 203 165 328 122z"/>
<path d="M447 1025 l-247 -495 160 -80 c88 -44 162 -80 165 -80 6 0 517 1021
513 1025 -2 1 -28 10 -58 20 -30 10 -104 38 -163 62 -60 23 -112 43 -116 43
-3 0 -117 -223 -254 -495z"/>
<path d="M4340 1491 c-36 -15 -108 -43 -160 -61 -52 -18 -96 -34 -98 -36 -5
-3 507 -1024 513 -1024 3 0 77 36 165 80 l160 80 -247 495 c-137 272 -252 495
-258 495 -5 -1 -39 -13 -75 -29z"/>
<path d="M2380 630 l0 -550 180 0 180 0 0 550 0 550 -180 0 -180 0 0 -550z"/>
</g>
</svg>
